<mxfile host="app.diagrams.net" agent="Mozilla/5.0 (Windows NT 10.0; Win64; x64) AppleWebKit/537.36 (KHTML, like Gecko) Chrome/141.0.0.0 Safari/537.36" version="28.2.8">
  <diagram name="Página-1" id="9xeKR69NaMELX4KjxUSX">
    <mxGraphModel dx="1096" dy="676" grid="1" gridSize="10" guides="1" tooltips="1" connect="1" arrows="1" fold="1" page="1" pageScale="1" pageWidth="827" pageHeight="1169" math="0" shadow="0">
      <root>
        <mxCell id="0" />
        <mxCell id="1" parent="0" />
        <mxCell id="iJ2UFjAkCdch31DN2l2D-3" value="" style="edgeStyle=orthogonalEdgeStyle;rounded=0;orthogonalLoop=1;jettySize=auto;html=1;" edge="1" parent="1" source="iJ2UFjAkCdch31DN2l2D-1" target="iJ2UFjAkCdch31DN2l2D-2">
          <mxGeometry relative="1" as="geometry" />
        </mxCell>
        <mxCell id="iJ2UFjAkCdch31DN2l2D-1" value="inicio" style="strokeWidth=2;html=1;shape=mxgraph.flowchart.terminator;whiteSpace=wrap;" vertex="1" parent="1">
          <mxGeometry x="250" y="30" width="100" height="60" as="geometry" />
        </mxCell>
        <mxCell id="iJ2UFjAkCdch31DN2l2D-5" value="" style="edgeStyle=orthogonalEdgeStyle;rounded=0;orthogonalLoop=1;jettySize=auto;html=1;" edge="1" parent="1" source="iJ2UFjAkCdch31DN2l2D-2" target="iJ2UFjAkCdch31DN2l2D-4">
          <mxGeometry relative="1" as="geometry" />
        </mxCell>
        <mxCell id="iJ2UFjAkCdch31DN2l2D-2" value="real valorProduto, valorParcelas&lt;div&gt;inteiro numeroParcelas, contador = 1&lt;/div&gt;" style="rounded=1;whiteSpace=wrap;html=1;absoluteArcSize=1;arcSize=14;strokeWidth=2;" vertex="1" parent="1">
          <mxGeometry x="180" y="130" width="240" height="70" as="geometry" />
        </mxCell>
        <mxCell id="iJ2UFjAkCdch31DN2l2D-4" value="&quot;Digite o valor do Produto: &quot;" style="strokeWidth=2;html=1;shape=mxgraph.flowchart.display;whiteSpace=wrap;" vertex="1" parent="1">
          <mxGeometry x="210" y="230" width="180" height="70" as="geometry" />
        </mxCell>
        <mxCell id="iJ2UFjAkCdch31DN2l2D-10" value="" style="edgeStyle=orthogonalEdgeStyle;rounded=0;orthogonalLoop=1;jettySize=auto;html=1;" edge="1" parent="1" source="iJ2UFjAkCdch31DN2l2D-6" target="iJ2UFjAkCdch31DN2l2D-9">
          <mxGeometry relative="1" as="geometry" />
        </mxCell>
        <mxCell id="iJ2UFjAkCdch31DN2l2D-6" value="valorProduto" style="html=1;strokeWidth=2;shape=manualInput;whiteSpace=wrap;rounded=1;size=26;arcSize=11;" vertex="1" parent="1">
          <mxGeometry x="232" y="330" width="150" height="60" as="geometry" />
        </mxCell>
        <mxCell id="iJ2UFjAkCdch31DN2l2D-8" style="edgeStyle=orthogonalEdgeStyle;rounded=0;orthogonalLoop=1;jettySize=auto;html=1;entryX=0.454;entryY=0.223;entryDx=0;entryDy=0;entryPerimeter=0;" edge="1" parent="1" source="iJ2UFjAkCdch31DN2l2D-4" target="iJ2UFjAkCdch31DN2l2D-6">
          <mxGeometry relative="1" as="geometry" />
        </mxCell>
        <mxCell id="iJ2UFjAkCdch31DN2l2D-9" value="&quot;Digite o número de parcelas: &quot;" style="strokeWidth=2;html=1;shape=mxgraph.flowchart.display;whiteSpace=wrap;" vertex="1" parent="1">
          <mxGeometry x="217" y="420" width="180" height="70" as="geometry" />
        </mxCell>
        <mxCell id="iJ2UFjAkCdch31DN2l2D-14" style="edgeStyle=orthogonalEdgeStyle;rounded=0;orthogonalLoop=1;jettySize=auto;html=1;" edge="1" parent="1" source="iJ2UFjAkCdch31DN2l2D-11" target="iJ2UFjAkCdch31DN2l2D-13">
          <mxGeometry relative="1" as="geometry" />
        </mxCell>
        <mxCell id="iJ2UFjAkCdch31DN2l2D-11" value="numeroParcelas" style="html=1;strokeWidth=2;shape=manualInput;whiteSpace=wrap;rounded=1;size=26;arcSize=11;" vertex="1" parent="1">
          <mxGeometry x="236" y="525" width="140" height="60" as="geometry" />
        </mxCell>
        <mxCell id="iJ2UFjAkCdch31DN2l2D-12" style="edgeStyle=orthogonalEdgeStyle;rounded=0;orthogonalLoop=1;jettySize=auto;html=1;entryX=0.51;entryY=0.161;entryDx=0;entryDy=0;entryPerimeter=0;" edge="1" parent="1" source="iJ2UFjAkCdch31DN2l2D-9" target="iJ2UFjAkCdch31DN2l2D-11">
          <mxGeometry relative="1" as="geometry">
            <mxPoint x="310" y="530" as="targetPoint" />
          </mxGeometry>
        </mxCell>
        <mxCell id="iJ2UFjAkCdch31DN2l2D-13" value="valorParcelas = valorProduto / numeroParcelas" style="rounded=1;whiteSpace=wrap;html=1;absoluteArcSize=1;arcSize=14;strokeWidth=2;" vertex="1" parent="1">
          <mxGeometry x="166" y="630" width="280" height="50" as="geometry" />
        </mxCell>
        <mxCell id="iJ2UFjAkCdch31DN2l2D-15" value="contador &amp;lt;= numeroParcelas" style="strokeWidth=2;html=1;shape=mxgraph.flowchart.decision;whiteSpace=wrap;" vertex="1" parent="1">
          <mxGeometry x="216" y="730" width="180" height="120" as="geometry" />
        </mxCell>
        <mxCell id="iJ2UFjAkCdch31DN2l2D-16" style="edgeStyle=orthogonalEdgeStyle;rounded=0;orthogonalLoop=1;jettySize=auto;html=1;entryX=0.5;entryY=0;entryDx=0;entryDy=0;entryPerimeter=0;" edge="1" parent="1" source="iJ2UFjAkCdch31DN2l2D-13" target="iJ2UFjAkCdch31DN2l2D-15">
          <mxGeometry relative="1" as="geometry" />
        </mxCell>
        <mxCell id="iJ2UFjAkCdch31DN2l2D-20" style="edgeStyle=orthogonalEdgeStyle;rounded=0;orthogonalLoop=1;jettySize=auto;html=1;entryX=0.5;entryY=0;entryDx=0;entryDy=0;" edge="1" parent="1" source="iJ2UFjAkCdch31DN2l2D-17" target="iJ2UFjAkCdch31DN2l2D-19">
          <mxGeometry relative="1" as="geometry" />
        </mxCell>
        <mxCell id="iJ2UFjAkCdch31DN2l2D-17" value="&quot;Parcela &quot;, contador, &quot;: R$ &quot;,valorParcela" style="strokeWidth=2;html=1;shape=mxgraph.flowchart.display;whiteSpace=wrap;" vertex="1" parent="1">
          <mxGeometry x="219" y="881" width="174" height="90" as="geometry" />
        </mxCell>
        <mxCell id="iJ2UFjAkCdch31DN2l2D-18" style="edgeStyle=orthogonalEdgeStyle;rounded=0;orthogonalLoop=1;jettySize=auto;html=1;entryX=0.5;entryY=0;entryDx=0;entryDy=0;entryPerimeter=0;" edge="1" parent="1" source="iJ2UFjAkCdch31DN2l2D-15" target="iJ2UFjAkCdch31DN2l2D-17">
          <mxGeometry relative="1" as="geometry" />
        </mxCell>
        <mxCell id="iJ2UFjAkCdch31DN2l2D-19" value="contador = contador + 1" style="rounded=1;whiteSpace=wrap;html=1;absoluteArcSize=1;arcSize=14;strokeWidth=2;" vertex="1" parent="1">
          <mxGeometry x="228.5" y="1000" width="153" height="40" as="geometry" />
        </mxCell>
        <mxCell id="iJ2UFjAkCdch31DN2l2D-21" style="edgeStyle=orthogonalEdgeStyle;rounded=0;orthogonalLoop=1;jettySize=auto;html=1;entryX=0;entryY=0.5;entryDx=0;entryDy=0;entryPerimeter=0;" edge="1" parent="1" source="iJ2UFjAkCdch31DN2l2D-19" target="iJ2UFjAkCdch31DN2l2D-15">
          <mxGeometry relative="1" as="geometry">
            <Array as="points">
              <mxPoint x="196" y="1020" />
              <mxPoint x="196" y="790" />
            </Array>
          </mxGeometry>
        </mxCell>
        <mxCell id="iJ2UFjAkCdch31DN2l2D-22" value="verdadeiro" style="text;html=1;whiteSpace=wrap;strokeColor=none;fillColor=none;align=center;verticalAlign=middle;rounded=0;" vertex="1" parent="1">
          <mxGeometry x="316" y="840" width="60" height="30" as="geometry" />
        </mxCell>
        <mxCell id="iJ2UFjAkCdch31DN2l2D-23" value="fim" style="strokeWidth=2;html=1;shape=mxgraph.flowchart.terminator;whiteSpace=wrap;" vertex="1" parent="1">
          <mxGeometry x="520" y="770" width="100" height="40" as="geometry" />
        </mxCell>
        <mxCell id="iJ2UFjAkCdch31DN2l2D-24" style="edgeStyle=orthogonalEdgeStyle;rounded=0;orthogonalLoop=1;jettySize=auto;html=1;entryX=0;entryY=0.5;entryDx=0;entryDy=0;entryPerimeter=0;" edge="1" parent="1" source="iJ2UFjAkCdch31DN2l2D-15" target="iJ2UFjAkCdch31DN2l2D-23">
          <mxGeometry relative="1" as="geometry" />
        </mxCell>
        <mxCell id="iJ2UFjAkCdch31DN2l2D-25" value="falso" style="text;html=1;whiteSpace=wrap;strokeColor=none;fillColor=none;align=center;verticalAlign=middle;rounded=0;" vertex="1" parent="1">
          <mxGeometry x="397" y="760" width="60" height="30" as="geometry" />
        </mxCell>
      </root>
    </mxGraphModel>
  </diagram>
</mxfile>
